<svg width="222" height="48" viewBox="0 0 222 48" fill="none" xmlns="http://www.w3.org/2000/svg">
<path d="M10.668 17.982C10.332 18.038 10.136 18.234 10.08 18.57V30.876C10.08 31.128 10.15 31.31 10.29 31.422C10.458 31.506 10.626 31.548 10.794 31.548H36.162C36.246 31.548 36.33 31.646 36.414 31.842C36.498 32.038 36.554 32.262 36.582 32.514C36.638 32.766 36.68 33.018 36.708 33.27C36.736 33.522 36.75 33.704 36.75 33.816C36.75 33.9 36.736 34.068 36.708 34.32C36.68 34.544 36.638 34.782 36.582 35.034C36.554 35.286 36.498 35.51 36.414 35.706C36.33 35.902 36.246 36 36.162 36H5.082C4.83 36 4.55 35.916 4.242 35.748C3.962 35.58 3.696 35.37 3.444 35.118C3.192 34.866 2.982 34.6 2.814 34.32C2.646 34.012 2.562 33.732 2.562 33.48V16.05C2.562 15.798 2.646 15.532 2.814 15.252C2.982 14.944 3.192 14.664 3.444 14.412C3.696 14.16 3.962 13.95 4.242 13.782C4.55 13.614 4.83 13.53 5.082 13.53H36.162C36.246 13.53 36.33 13.628 36.414 13.824C36.498 14.02 36.554 14.244 36.582 14.496C36.638 14.748 36.68 14.986 36.708 15.21C36.736 15.434 36.75 15.588 36.75 15.672C36.75 15.784 36.736 15.966 36.708 16.218C36.68 16.47 36.638 16.736 36.582 17.016C36.554 17.268 36.498 17.492 36.414 17.688C36.33 17.884 36.246 17.982 36.162 17.982H10.668ZM43.625 13.53H73.235C73.487 13.53 73.753 13.614 74.033 13.782C74.341 13.95 74.621 14.16 74.873 14.412C75.125 14.664 75.335 14.944 75.503 15.252C75.671 15.532 75.755 15.798 75.755 16.05V35.16C75.755 35.384 75.671 35.58 75.503 35.748C75.335 35.916 75.153 36 74.957 36H69.035C68.867 36 68.685 35.916 68.489 35.748C68.321 35.58 68.237 35.384 68.237 35.16V31.002H48.623V35.16C48.623 35.384 48.539 35.58 48.371 35.748C48.203 35.916 48.021 36 47.825 36H41.903C41.735 36 41.553 35.916 41.357 35.748C41.189 35.58 41.105 35.384 41.105 35.16V16.05C41.105 15.798 41.189 15.532 41.357 15.252C41.525 14.944 41.735 14.664 41.987 14.412C42.239 14.16 42.505 13.95 42.785 13.782C43.093 13.614 43.373 13.53 43.625 13.53ZM48.623 18.654V26.55H68.237V18.654C68.237 18.402 68.153 18.234 67.985 18.15C67.845 18.038 67.691 17.982 67.523 17.982H49.337C49.169 17.982 49.001 18.038 48.833 18.15C48.693 18.234 48.623 18.402 48.623 18.654ZM112.396 36H106.6C106.432 36 106.25 35.902 106.054 35.706C105.886 35.51 105.746 35.328 105.634 35.16L102.568 31.002H87.6581V35.16C87.6581 35.384 87.5741 35.58 87.4061 35.748C87.2381 35.916 87.0561 36 86.8601 36H80.9381C80.7701 36 80.5881 35.916 80.3921 35.748C80.2241 35.58 80.1401 35.384 80.1401 35.16V14.328C80.1401 14.132 80.2241 13.95 80.3921 13.782C80.5881 13.614 80.7701 13.53 80.9381 13.53H112.27C112.522 13.53 112.788 13.614 113.068 13.782C113.376 13.95 113.656 14.16 113.908 14.412C114.16 14.664 114.37 14.944 114.538 15.252C114.706 15.532 114.79 15.798 114.79 16.05V28.482C114.79 28.734 114.706 29.014 114.538 29.322C114.37 29.602 114.16 29.868 113.908 30.12C113.656 30.372 113.376 30.582 113.068 30.75C112.788 30.918 112.522 31.002 112.27 31.002H110.464L113.194 35.16C113.194 35.384 113.096 35.58 112.9 35.748C112.732 35.916 112.564 36 112.396 36ZM106.684 17.982H87.6581V26.55H106.642C106.81 26.522 106.95 26.466 107.062 26.382C107.202 26.27 107.272 26.102 107.272 25.878V18.57C107.272 18.402 107.202 18.276 107.062 18.192C106.95 18.08 106.824 18.01 106.684 17.982ZM121.695 36C121.443 36 121.163 35.916 120.855 35.748C120.575 35.58 120.309 35.37 120.057 35.118C119.805 34.866 119.595 34.6 119.427 34.32C119.259 34.012 119.175 33.732 119.175 33.48V16.05C119.175 15.798 119.259 15.532 119.427 15.252C119.595 14.944 119.805 14.664 120.057 14.412C120.309 14.16 120.575 13.95 120.855 13.782C121.163 13.614 121.443 13.53 121.695 13.53H152.775C152.859 13.53 152.943 13.628 153.027 13.824C153.111 14.02 153.167 14.244 153.195 14.496C153.251 14.748 153.293 14.986 153.321 15.21C153.349 15.434 153.363 15.588 153.363 15.672C153.363 15.784 153.349 15.966 153.321 16.218C153.293 16.47 153.251 16.736 153.195 17.016C153.167 17.268 153.111 17.492 153.027 17.688C152.943 17.884 152.859 17.982 152.775 17.982H127.281C126.945 18.038 126.749 18.234 126.693 18.57V30.876C126.693 31.128 126.763 31.31 126.903 31.422C127.071 31.506 127.239 31.548 127.407 31.548H145.845V26.802H133.875C133.791 26.802 133.707 26.718 133.623 26.55C133.539 26.354 133.469 26.144 133.413 25.92C133.385 25.668 133.357 25.43 133.329 25.206C133.301 24.954 133.287 24.772 133.287 24.66C133.287 24.576 133.301 24.436 133.329 24.24C133.357 24.016 133.385 23.792 133.413 23.568C133.469 23.344 133.539 23.148 133.623 22.98C133.707 22.784 133.791 22.686 133.875 22.686H152.523C152.747 22.686 152.943 22.77 153.111 22.938C153.279 23.078 153.363 23.26 153.363 23.484V35.16C153.363 35.384 153.279 35.58 153.111 35.748C152.943 35.916 152.761 36 152.565 36H121.695ZM157.718 16.05C157.718 15.798 157.802 15.532 157.97 15.252C158.138 14.944 158.348 14.664 158.6 14.412C158.852 14.16 159.118 13.95 159.398 13.782C159.706 13.614 159.986 13.53 160.238 13.53H189.848C190.1 13.53 190.366 13.614 190.646 13.782C190.954 13.95 191.234 14.16 191.486 14.412C191.738 14.664 191.948 14.944 192.116 15.252C192.284 15.532 192.368 15.798 192.368 16.05V33.48C192.368 33.732 192.284 34.012 192.116 34.32C191.948 34.6 191.738 34.866 191.486 35.118C191.234 35.37 190.954 35.58 190.646 35.748C190.366 35.916 190.1 36 189.848 36H160.238C159.986 36 159.706 35.916 159.398 35.748C159.118 35.58 158.852 35.37 158.6 35.118C158.348 34.866 158.138 34.6 157.97 34.32C157.802 34.012 157.718 33.732 157.718 33.48V16.05ZM165.95 17.982C165.782 17.982 165.628 18.024 165.488 18.108C165.348 18.192 165.264 18.346 165.236 18.57V30.876C165.236 31.128 165.306 31.31 165.446 31.422C165.614 31.506 165.782 31.548 165.95 31.548H184.136C184.304 31.548 184.458 31.506 184.598 31.422C184.766 31.31 184.85 31.128 184.85 30.876V18.57C184.85 18.346 184.766 18.192 184.598 18.108C184.458 18.024 184.304 17.982 184.136 17.982H165.95ZM197.257 22.476H205.615V15.756C205.615 15.672 205.713 15.588 205.909 15.504C206.105 15.42 206.329 15.364 206.581 15.336C206.833 15.28 207.071 15.238 207.295 15.21C207.519 15.182 207.673 15.168 207.757 15.168C207.869 15.168 208.051 15.182 208.303 15.21C208.555 15.238 208.807 15.28 209.059 15.336C209.339 15.364 209.577 15.42 209.773 15.504C209.969 15.588 210.067 15.672 210.067 15.756V22.476H218.467C218.551 22.476 218.635 22.574 218.719 22.77C218.803 22.966 218.859 23.19 218.887 23.442C218.943 23.694 218.985 23.932 219.013 24.156C219.041 24.38 219.055 24.534 219.055 24.618C219.055 24.73 219.041 24.912 219.013 25.164C218.985 25.416 218.943 25.682 218.887 25.962C218.859 26.214 218.803 26.438 218.719 26.634C218.635 26.83 218.551 26.928 218.467 26.928H210.067V33.606C210.067 33.69 209.969 33.774 209.773 33.858C209.577 33.914 209.339 33.97 209.059 34.026C208.807 34.082 208.555 34.124 208.303 34.152C208.051 34.18 207.869 34.194 207.757 34.194C207.673 34.194 207.519 34.18 207.295 34.152C207.071 34.124 206.833 34.082 206.581 34.026C206.329 33.97 206.105 33.914 205.909 33.858C205.713 33.774 205.615 33.69 205.615 33.606V26.928H197.257C197.173 26.928 197.089 26.83 197.005 26.634C196.949 26.438 196.893 26.214 196.837 25.962C196.781 25.682 196.739 25.416 196.711 25.164C196.683 24.912 196.669 24.73 196.669 24.618C196.669 24.534 196.683 24.38 196.711 24.156C196.739 23.932 196.781 23.694 196.837 23.442C196.893 23.19 196.949 22.966 197.005 22.77C197.089 22.574 197.173 22.476 197.257 22.476Z" fill="#EDEDED"/>
</svg>
