<svg width="12" height="12" viewBox="0 0 12 12" fill="none" xmlns="http://www.w3.org/2000/svg">
<g clip-path="url(#clip0_42038_462)">
<g clip-path="url(#clip1_42038_462)">
<path d="M12 6.00017C12 6.41225 11.9592 6.81527 11.8777 7.2047H5.43849V11.973C4.56679 11.8938 3.7517 11.6266 3.02943 11.2122V7.2047H0.122264C0.0407547 6.81527 0 6.41225 0 6.00017C0 5.5881 0.0407547 5.18281 0.122264 4.79338H3.02943L3.02943 0.788098C3.7517 0.373759 4.56679 0.106589 5.43849 0.0273437L5.43849 4.79338H11.8777C11.9592 5.18281 12 5.58583 12 6.00017Z" fill="#FFDD00"/>
<path d="M3.02826 0.788086L3.02826 4.79337H0.121094C0.469773 3.07714 1.5543 1.62809 3.02826 0.788086Z" fill="#14439E"/>
<path d="M3.02826 7.20459L3.02826 11.2121C1.55204 10.3721 0.469773 8.92082 0.121094 7.20459H3.02826Z" fill="#14439E"/>
<path d="M11.8767 7.20459C11.3198 9.93968 8.90165 12.0001 5.99901 12.0001C5.80882 12.0001 5.62316 11.991 5.4375 11.9729L5.4375 7.20459L11.8767 7.20459Z" fill="#14439E"/>
<path d="M11.8767 4.79321L5.4375 4.79321L5.4375 0.0271698C5.62316 0.0090566 5.80882 0 5.99901 0C8.89939 0 11.3198 2.05811 11.8767 4.79321Z" fill="#14439E"/>
</g>
</g>
<defs>
<clipPath id="clip0_42038_462">
<rect width="12" height="12" fill="white"/>
</clipPath>
<clipPath id="clip1_42038_462">
<rect width="12" height="12" fill="white"/>
</clipPath>
</defs>
</svg>
