<svg width="12" height="12" viewBox="0 0 12 12" fill="none" xmlns="http://www.w3.org/2000/svg">
<g clip-path="url(#clip0_42038_457)">
<path d="M6 12C9.31371 12 12 9.31371 12 6C12 2.68629 9.31371 0 6 0C2.68629 0 0 2.68629 0 6C0 9.31371 2.68629 12 6 12Z" fill="#F2F2F2"/>
<path d="M1.60087 3.8685L2.85712 2.54775L3.138 2.8395L1.88175 4.16062L1.60087 3.8685Z" fill="#28292B"/>
<path d="M2.00475 4.29787L3.26062 2.97675L3.54187 3.2685L2.286 4.58962L2.00475 4.29787Z" fill="#28292B"/>
<path d="M2.39662 4.70887L3.6525 3.38812L3.93375 3.6795L2.6775 5.00062L2.39662 4.70887Z" fill="#28292B"/>
<path d="M8.787 7.56525L9.28012 7.04587L9.56137 7.338L9.0675 7.8585L8.787 7.56525Z" fill="#28292B"/>
<path d="M8.30512 8.65875L8.0235 8.367L8.50687 7.8585L8.787 8.151L8.30512 8.65875Z" fill="#28292B"/>
<path d="M9.19537 7.99012L9.684 7.47562L9.96487 7.76737L9.47512 8.283L9.19537 7.99012Z" fill="#28292B"/>
<path d="M8.70975 9.08775L8.4285 8.79562L8.91487 8.283L9.19537 8.57587L8.70975 9.08775Z" fill="#28292B"/>
<path d="M9.86887 8.69175L9.58837 8.39887L10.0755 7.88662L10.356 8.17837L9.86887 8.69175Z" fill="#28292B"/>
<path d="M9.10162 9.4995L8.82075 9.20737L9.309 8.69325L9.5895 8.98575L9.10162 9.4995Z" fill="#28292B"/>
<path d="M9.90225 3.29812L10.3991 3.81375L10.1197 4.10775L9.62212 3.591L9.90225 3.29812Z" fill="#28292B"/>
<path d="M8.856 2.79412L9.13575 2.5005L9.62212 3.00525L9.342 3.29812L8.856 2.79412Z" fill="#28292B"/>
<path d="M8.44612 3.21712L8.7255 2.92312L9.98812 4.23525L9.70912 4.52925L8.44612 3.21712Z" fill="#28292B"/>
<path d="M8.82412 4.42875L9.10462 4.13587L9.59512 4.64437L9.31575 4.93837L8.82412 4.42875Z" fill="#28292B"/>
<path d="M8.052 3.627L8.331 3.333L8.82337 3.84375L8.54287 4.13662L8.052 3.627Z" fill="#28292B"/>
<path d="M2.41275 7.31925L2.69212 7.02562L3.95625 8.33887L3.67687 8.6325L2.41275 7.31925Z" fill="#28292B"/>
<path d="M3.05287 8.24962L3.54525 8.76075L3.26587 9.05437L2.77237 8.54287L3.05287 8.24962Z" fill="#28292B"/>
<path d="M2.00287 7.74225L2.28225 7.44825L2.77237 7.95712L2.49225 8.24962L2.00287 7.74225Z" fill="#28292B"/>
<path d="M1.60875 8.15212L1.88775 7.8585L3.15187 9.16987L2.8725 9.4635L1.60875 8.15212Z" fill="#28292B"/>
<path d="M8.14125 6C8.15382 6.57912 7.93593 7.13954 7.53546 7.55808C7.135 7.97661 6.58474 8.21901 6.00562 8.232C5.42657 8.21891 4.87641 7.97647 4.47603 7.55795C4.07564 7.13942 3.8578 6.57906 3.87037 6C3.8577 5.42087 4.0755 4.86041 4.47589 4.44181C4.87628 4.0232 5.42651 3.78071 6.00562 3.76762C6.58477 3.78071 7.13503 4.02319 7.53549 4.44179C7.93594 4.86038 8.15382 5.42084 8.14125 6Z" fill="#2E4593"/>
<path d="M8.13 6C8.13049 6.10438 8.12334 6.20866 8.10862 6.312C8.04675 5.86987 7.81575 5.07225 6.94087 5.05687C6.72541 5.02962 6.50727 5.07977 6.32533 5.19838C6.1434 5.31699 6.0095 5.49635 5.9475 5.7045C5.75212 6.21112 5.73112 6.8295 4.87237 6.8295C4.63505 6.84593 4.40009 6.77367 4.21302 6.62672C4.02595 6.47976 3.9001 6.26859 3.85987 6.03412C3.85913 6.02314 3.85913 6.01211 3.85987 6.00112C3.85886 5.63625 3.94459 5.27636 4.11 4.95112C4.28409 4.59853 4.55256 4.30113 4.88556 4.092C5.21856 3.88286 5.60304 3.77019 5.99625 3.7665C6.57524 3.78017 7.12513 4.02305 7.52519 4.44182C7.92526 4.86058 8.14278 5.42099 8.13 6Z" fill="#DB2E2E"/>
</g>
<defs>
<clipPath id="clip0_42038_457">
<rect width="12" height="12" fill="white"/>
</clipPath>
</defs>
</svg>
