<svg width="12" height="12" viewBox="0 0 12 12" fill="none" xmlns="http://www.w3.org/2000/svg">
<g clip-path="url(#clip0_42038_428)">
<path d="M6 12C9.31371 12 12 9.31371 12 6C12 2.68629 9.31371 0 6 0C2.68629 0 0 2.68629 0 6C0 9.31371 2.68629 12 6 12Z" fill="#F0F0F0"/>
<path d="M0.206695 7.56522C0.553851 8.85333 1.31897 9.96975 2.34783 10.7603V7.56522H0.206695Z" fill="#D80027"/>
<path d="M5.47826 11.9772C5.65024 11.992 5.82417 12 6 12C8.77216 12 11.1048 10.1198 11.7933 7.56522H5.47826V11.9772Z" fill="#D80027"/>
<path d="M11.7933 4.43477C11.1048 1.88018 8.77216 0 6 0C5.82417 0 5.65024 0.00801562 5.47826 0.0228281V4.43477H11.7933Z" fill="#D80027"/>
<path d="M2.34783 1.23973C1.31897 2.03027 0.553851 3.14667 0.206695 4.43477H2.34783L2.34783 1.23973Z" fill="#D80027"/>
<path d="M11.9492 5.2174H4.69568L4.69566 0.142617C4.14117 0.26557 3.61549 0.464859 3.13043 0.729539L3.13043 5.21735L0.0507891 5.21737C0.0173906 5.47357 0 5.73476 0 6C0 6.26524 0.0173906 6.52643 0.0507891 6.7826H3.13041L3.13043 11.2704C3.61549 11.5351 4.14117 11.7344 4.69566 11.8574V6.78267L11.9492 6.78262C11.9826 6.52643 12 6.26524 12 6C12 5.73476 11.9826 5.47357 11.9492 5.2174Z" fill="#0052B4"/>
</g>
<defs>
<clipPath id="clip0_42038_428">
<rect width="12" height="12" fill="white"/>
</clipPath>
</defs>
</svg>
