<svg width="12" height="12" viewBox="0 0 12 12" fill="none" xmlns="http://www.w3.org/2000/svg">
<g clip-path="url(#clip0_42038_466)">
<g clip-path="url(#clip1_42038_466)">
<path d="M0 5.9998C0 6.73372 0.132023 7.43675 0.373195 8.08675L6 8.60849L11.6268 8.08675C11.868 7.43675 12 6.73372 12 5.9998C12 5.26588 11.868 4.56285 11.6268 3.91286L6 3.39111L0.373195 3.91286C0.132023 4.56285 0 5.26588 0 5.9998Z" fill="#FFDA44"/>
<path d="M11.6286 3.91305C10.7808 1.62827 8.58159 0 6.0018 0C3.42201 0 1.22276 1.62827 0.375 3.91305L11.6286 3.91305Z" fill="#D80027"/>
<path d="M0.375 8.08691C1.22276 10.3717 3.42201 12 6.0018 12C8.58159 12 10.7808 10.3717 11.6286 8.08691L0.375 8.08691Z" fill="#D80027"/>
</g>
</g>
<defs>
<clipPath id="clip0_42038_466">
<rect width="12" height="12" fill="white"/>
</clipPath>
<clipPath id="clip1_42038_466">
<rect width="12" height="12" fill="white"/>
</clipPath>
</defs>
</svg>
