<svg width="12" height="12" viewBox="0 0 12 12" fill="none" xmlns="http://www.w3.org/2000/svg">
<g clip-path="url(#clip0_42038_417)">
<path d="M6 12C9.31371 12 12 9.31371 12 6C12 2.68629 9.31371 0 6 0C2.68629 0 0 2.68629 0 6C0 9.31371 2.68629 12 6 12Z" fill="#009B3A"/>
<path d="M1 6L6 9.2L11 6L6 2.8L1 6Z" fill="#FEDF00"/>
<path d="M6 8.12C7.17084 8.12 8.12 7.17084 8.12 6C8.12 4.82916 7.17084 3.88 6 3.88C4.82916 3.88 3.88 4.82916 3.88 6C3.88 7.17084 4.82916 8.12 6 8.12Z" fill="#002776"/>
<path d="M4.08 5.16C4.04 5.28 4 5.36 3.96 5.48C5.44 5.24 6.92 5.64 8.04 6.64C8.08 6.52 8.08 6.4 8.12 6.32C6.96 5.36 5.52 4.96 4.08 5.16Z" fill="white"/>
</g>
<defs>
<clipPath id="clip0_42038_417">
<rect width="12" height="12" fill="white"/>
</clipPath>
</defs>
</svg>
