<svg width="12" height="12" viewBox="0 0 12 12" fill="none" xmlns="http://www.w3.org/2000/svg">
<g clip-path="url(#clip0_42038_411)">
<path d="M6 12C9.31371 12 12 9.31371 12 6C12 2.68629 9.31371 0 6 0C2.68629 0 0 2.68629 0 6C0 9.31371 2.68629 12 6 12Z" fill="#F0F0F0"/>
<path d="M4.69568 5.2174H11.9492C11.5657 2.27348 9.04844 0 6 0C5.55199 0 5.11566 0.0495234 4.69566 0.142617L4.69568 5.2174Z" fill="#D80027"/>
<path d="M3.13043 5.21737L3.13043 0.729539C1.48294 1.62846 0.303516 3.27731 0.0507891 5.2174L3.13043 5.21737Z" fill="#D80027"/>
<path d="M3.13041 6.7826H0.0507891C0.303516 8.72269 1.48294 10.3715 3.13043 11.2704L3.13041 6.7826Z" fill="#D80027"/>
<path d="M4.69566 6.78262V11.8574C5.11566 11.9505 5.55199 12 6 12C9.04844 12 11.5657 9.72651 11.9492 6.7826L4.69566 6.78262Z" fill="#D80027"/>
</g>
<defs>
<clipPath id="clip0_42038_411">
<rect width="12" height="12" fill="white"/>
</clipPath>
</defs>
</svg>
