<svg width="12" height="12" viewBox="0 0 12 12" fill="none" xmlns="http://www.w3.org/2000/svg">
<g clip-path="url(#clip0_42038_406)">
<path d="M6.00023 12C9.31379 12 12 9.31382 12 6.00025C12 2.68668 9.31379 0.000506671 6.00023 0.000506671C2.68666 0.000506671 0.000481337 2.68668 0.000481337 6.00025C0.000481337 9.31382 2.68666 12 6.00023 12Z" fill="white"/>
<path d="M11.657 3.99959H7.96026C8.12075 5.28129 8.12179 6.69353 7.9633 7.97683H11.6649C11.8809 7.35762 12 6.69307 12 6.00025C12.0001 5.29854 11.8783 4.62532 11.657 3.99959Z" fill="#EFECEC"/>
<path d="M7.96026 3.99959H11.657C11.6563 3.99769 11.6557 3.99609 11.6551 3.99437C10.8871 1.82918 8.91196 0.236185 6.53869 0.0247255C7.45711 0.528154 7.72529 2.12315 7.96026 3.99959Z" fill="#E63026"/>
<path d="M6.53879 11.9752C8.9163 11.7634 10.8943 10.1649 11.6592 7.99388C11.6612 7.9881 11.6629 7.98243 11.6649 7.97683H7.9633C7.73038 9.86342 7.46096 11.4697 6.53879 11.9752Z" fill="#2B479D"/>
<path d="M0 6.00005C0 6.69287 0.11889 7.35762 0.334884 7.97683L8.27222 7.97683C8.4307 6.69343 8.42966 5.28129 8.26918 3.99959L0.342839 3.99959C0.121525 4.62532 0 5.29834 0 6.00005Z" fill="#EFEFEF"/>
<path d="M0.344612 3.99439C0.343954 3.99609 0.343498 3.99769 0.342839 3.99959L8.26918 3.99959C8.03423 2.12313 7.45696 0.528154 6.53869 0.0247255C6.36108 0.00896808 6.18154 0 5.99985 0C3.38978 0 1.17 1.66707 0.344612 3.99439Z" fill="#E73B36"/>
<path d="M8.27222 7.97683L0.334884 7.97683C0.336886 7.98243 0.338684 7.9881 0.34066 7.99388C1.16278 10.3271 3.38547 12 5.99985 12C6.18156 12 6.36118 11.9911 6.53879 11.9752C7.46096 11.4697 8.03925 9.86342 8.27222 7.97683Z" fill="#3757A6"/>
</g>
<defs>
<clipPath id="clip0_42038_406">
<rect width="12" height="12" fill="white"/>
</clipPath>
</defs>
</svg>
