<svg width="12" height="12" viewBox="0 0 12 12" fill="none" xmlns="http://www.w3.org/2000/svg">
<g clip-path="url(#clip0_42038_448)">
<path d="M6 12C9.31371 12 12 9.31371 12 6C12 2.68629 9.31371 0 6 0C2.68629 0 0 2.68629 0 6C0 9.31371 2.68629 12 6 12Z" fill="#F0F0F0"/>
<path d="M5.73914 6H12C12 5.45845 11.9278 4.93383 11.7933 4.43477H5.73914L5.73914 6Z" fill="#D80027"/>
<path d="M5.73914 2.86957L11.1194 2.86957C10.7521 2.27023 10.2825 1.74047 9.7349 1.30434L5.73914 1.30434V2.86957Z" fill="#D80027"/>
<path d="M6 12C7.41208 12 8.70998 11.5119 9.7349 10.6957L2.26509 10.6957C3.29001 11.5119 4.58791 12 6 12Z" fill="#D80027"/>
<path d="M0.88064 9.13043L11.1194 9.13043C11.4142 8.64928 11.6429 8.12334 11.7933 7.5652L0.206695 7.5652C0.357094 8.12334 0.585773 8.64928 0.88064 9.13043Z" fill="#D80027"/>
<path d="M2.77931 0.936984L3.32609 0.936984L2.81749 1.30648L3.01177 1.90434L2.50319 1.53485L1.99462 1.90434L2.16244 1.38785C1.71464 1.76086 1.32216 2.19787 0.998719 2.68481H1.17391L0.850172 2.92001C0.799734 3.00415 0.751359 3.08962 0.705 3.17637L0.859594 3.65217L0.571172 3.44262C0.499476 3.59451 0.433898 3.74984 0.374953 3.90839L0.545273 4.43264H1.17391L0.66532 4.80213L0.859594 5.4L0.351023 5.03051L0.0463828 5.25185C0.0158906 5.49696 0 5.74662 0 6L6 6C6 2.68631 6 2.29566 6 0C4.81472 0 3.7098 0.343828 2.77931 0.936984ZM3.01177 5.4L2.50319 5.03051L1.99462 5.4L2.1889 4.80213L1.6803 4.43264H2.30894L2.50319 3.83477L2.69744 4.43264H3.32609L2.81749 4.80213L3.01177 5.4ZM2.81749 3.0543L3.01177 3.65217L2.50319 3.28268L1.99462 3.65217L2.1889 3.0543L1.6803 2.68481H2.30894L2.50319 2.08694L2.69744 2.68481H3.32609L2.81749 3.0543ZM5.16394 5.4L4.65537 5.03051L4.1468 5.4L4.34107 4.80213L3.83248 4.43264H4.46112L4.65537 3.83477L4.84962 4.43264H5.47826L4.96966 4.80213L5.16394 5.4ZM4.96966 3.0543L5.16394 3.65217L4.65537 3.28268L4.1468 3.65217L4.34107 3.0543L3.83248 2.68481H4.46112L4.65537 2.08694L4.84962 2.68481H5.47826L4.96966 3.0543ZM4.96966 1.30648L5.16394 1.90434L4.65537 1.53485L4.1468 1.90434L4.34107 1.30648L3.83248 0.936984L4.46112 0.936984L4.65537 0.339117L4.84962 0.936984L5.47826 0.936984L4.96966 1.30648Z" fill="#0052B4"/>
</g>
<defs>
<clipPath id="clip0_42038_448">
<rect width="12" height="12" fill="white"/>
</clipPath>
</defs>
</svg>
