<svg width="12" height="12" viewBox="0 0 12 12" fill="none" xmlns="http://www.w3.org/2000/svg">
<g clip-path="url(#clip0_42038_443)">
<path d="M8.08694 0.373195C7.43695 0.132023 6.73392 0 6 0C5.26608 0 4.56305 0.132023 3.91305 0.373195L3.39131 6L3.91305 11.6268C4.56305 11.868 5.26608 12 6 12C6.73392 12 7.43695 11.868 8.08694 11.6268L8.60869 6L8.08694 0.373195Z" fill="#FFDA44"/>
<path d="M12 6C12 3.42023 10.3717 1.22093 8.08694 0.373195L8.08694 11.6268C10.3717 10.779 12 8.57981 12 6Z" fill="#D80027"/>
<path d="M0 6C0 8.57981 1.62825 10.779 3.91305 11.6268L3.91305 0.373195C1.62825 1.22093 0 3.42023 0 6Z" fill="black"/>
</g>
<defs>
<clipPath id="clip0_42038_443">
<rect width="12" height="12" fill="white"/>
</clipPath>
</defs>
</svg>
