<svg width="32" height="32" viewBox="0 0 32 32" fill="none" xmlns="http://www.w3.org/2000/svg">
<rect width="32" height="32" fill="#D9D9D9"/>
<path d="M4.28905 15.2227C4.24845 15.2295 4.22477 15.2532 4.218 15.2938V16.7808C4.218 16.8112 4.22646 16.8332 4.24337 16.8467C4.26368 16.8569 4.28398 16.862 4.30427 16.862H7.36958C7.37973 16.862 7.38987 16.8738 7.40003 16.8975C7.41018 16.9212 7.41694 16.9482 7.42033 16.9787C7.42709 17.0091 7.43217 17.0396 7.43555 17.07C7.43893 17.1005 7.44063 17.1225 7.44063 17.136C7.44063 17.1462 7.43893 17.1665 7.43555 17.1969C7.43217 17.224 7.42709 17.2527 7.42033 17.2832C7.41694 17.3136 7.41018 17.3407 7.40003 17.3644C7.38987 17.3881 7.37973 17.3999 7.36958 17.3999H3.61408C3.58363 17.3999 3.54979 17.3898 3.51257 17.3695C3.47874 17.3492 3.4466 17.3238 3.41615 17.2933C3.3857 17.2629 3.36033 17.2307 3.34002 17.1969C3.31973 17.1597 3.30958 17.1259 3.30958 17.0954V14.9893C3.30958 14.9588 3.31973 14.9267 3.34002 14.8929C3.36033 14.8556 3.3857 14.8218 3.41615 14.7914C3.4466 14.7609 3.47874 14.7355 3.51257 14.7152C3.54979 14.6949 3.58363 14.6848 3.61408 14.6848H7.36958C7.37973 14.6848 7.38987 14.6966 7.40003 14.7203C7.41018 14.744 7.41694 14.7711 7.42033 14.8015C7.42709 14.832 7.43217 14.8607 7.43555 14.8878C7.43893 14.9148 7.44063 14.9335 7.44063 14.9436C7.44063 14.9571 7.43893 14.9791 7.43555 15.0096C7.43217 15.04 7.42709 15.0722 7.42033 15.106C7.41694 15.1365 7.41018 15.1635 7.40003 15.1872C7.38987 15.2109 7.37973 15.2227 7.36958 15.2227H4.28905ZM8.27135 14.6848H11.8492C11.8797 14.6848 11.9118 14.6949 11.9457 14.7152C11.9829 14.7355 12.0167 14.7609 12.0472 14.7914C12.0776 14.8218 12.103 14.8556 12.1233 14.8929C12.1436 14.9267 12.1537 14.9588 12.1537 14.9893V17.2984C12.1537 17.3255 12.1436 17.3492 12.1233 17.3695C12.103 17.3898 12.081 17.3999 12.0573 17.3999H11.3417C11.3214 17.3999 11.2994 17.3898 11.2758 17.3695C11.2555 17.3492 11.2453 17.3255 11.2453 17.2984V16.796H8.87528V17.2984C8.87528 17.3255 8.86513 17.3492 8.84483 17.3695C8.82453 17.3898 8.80253 17.3999 8.77885 17.3999H8.06328C8.04298 17.3999 8.02098 17.3898 7.9973 17.3695C7.977 17.3492 7.96685 17.3255 7.96685 17.2984V14.9893C7.96685 14.9588 7.977 14.9267 7.9973 14.8929C8.0176 14.8556 8.04298 14.8218 8.07343 14.7914C8.10388 14.7609 8.13602 14.7355 8.16985 14.7152C8.20707 14.6949 8.2409 14.6848 8.27135 14.6848ZM8.87528 15.3039V16.258H11.2453V15.3039C11.2453 15.2735 11.2352 15.2532 11.2149 15.243C11.1979 15.2295 11.1793 15.2227 11.159 15.2227H8.96155C8.94125 15.2227 8.92095 15.2295 8.90065 15.243C8.88373 15.2532 8.87528 15.2735 8.87528 15.3039ZM16.5812 17.3999H15.8808C15.8605 17.3999 15.8386 17.3881 15.8149 17.3644C15.7946 17.3407 15.7777 17.3187 15.7641 17.2984L15.3936 16.796H13.592V17.2984C13.592 17.3255 13.5819 17.3492 13.5616 17.3695C13.5413 17.3898 13.5193 17.3999 13.4956 17.3999H12.78C12.7597 17.3999 12.7377 17.3898 12.714 17.3695C12.6937 17.3492 12.6836 17.3255 12.6836 17.2984V14.7812C12.6836 14.7575 12.6937 14.7355 12.714 14.7152C12.7377 14.6949 12.7597 14.6848 12.78 14.6848H16.566C16.5964 14.6848 16.6286 14.6949 16.6624 14.7152C16.6996 14.7355 16.7334 14.7609 16.7639 14.7914C16.7943 14.8218 16.8197 14.8556 16.84 14.8929C16.8603 14.9267 16.8705 14.9588 16.8705 14.9893V16.4915C16.8705 16.5219 16.8603 16.5558 16.84 16.593C16.8197 16.6268 16.7943 16.659 16.7639 16.6894C16.7334 16.7199 16.6996 16.7452 16.6624 16.7655C16.6286 16.7858 16.5964 16.796 16.566 16.796H16.3477L16.6776 17.2984C16.6776 17.3255 16.6658 17.3492 16.6421 17.3695C16.6218 17.3898 16.6015 17.3999 16.5812 17.3999ZM15.891 15.2227H13.592V16.258H15.8859C15.9062 16.2546 15.9231 16.2479 15.9367 16.2377C15.9536 16.2242 15.962 16.2039 15.962 16.1768V15.2938C15.962 15.2735 15.9536 15.2583 15.9367 15.2481C15.9231 15.2346 15.9079 15.2261 15.891 15.2227ZM17.7048 17.3999C17.6744 17.3999 17.6406 17.3898 17.6033 17.3695C17.5695 17.3492 17.5374 17.3238 17.5069 17.2933C17.4765 17.2629 17.4511 17.2307 17.4308 17.1969C17.4105 17.1597 17.4003 17.1259 17.4003 17.0954V14.9893C17.4003 14.9588 17.4105 14.9267 17.4308 14.8929C17.4511 14.8556 17.4765 14.8218 17.5069 14.7914C17.5374 14.7609 17.5695 14.7355 17.6033 14.7152C17.6406 14.6949 17.6744 14.6848 17.7048 14.6848H21.4603C21.4705 14.6848 21.4806 14.6966 21.4908 14.7203C21.5009 14.744 21.5077 14.7711 21.5111 14.8015C21.5179 14.832 21.5229 14.8607 21.5263 14.8878C21.5297 14.9148 21.5314 14.9335 21.5314 14.9436C21.5314 14.9571 21.5297 14.9791 21.5263 15.0096C21.5229 15.04 21.5179 15.0722 21.5111 15.106C21.5077 15.1365 21.5009 15.1635 21.4908 15.1872C21.4806 15.2109 21.4705 15.2227 21.4603 15.2227H18.3798C18.3392 15.2295 18.3155 15.2532 18.3088 15.2938V16.7808C18.3088 16.8112 18.3172 16.8332 18.3341 16.8467C18.3544 16.8569 18.3747 16.862 18.395 16.862H20.623V16.2885H19.1766C19.1664 16.2885 19.1563 16.2783 19.1461 16.258C19.136 16.2343 19.1275 16.209 19.1208 16.1819C19.1174 16.1515 19.114 16.1227 19.1106 16.0956C19.1072 16.0652 19.1055 16.0432 19.1055 16.0297C19.1055 16.0195 19.1072 16.0026 19.1106 15.9789C19.114 15.9518 19.1174 15.9248 19.1208 15.8977C19.1275 15.8706 19.136 15.847 19.1461 15.8267C19.1563 15.803 19.1664 15.7911 19.1766 15.7911H21.4299C21.457 15.7911 21.4806 15.8013 21.5009 15.8216C21.5212 15.8385 21.5314 15.8605 21.5314 15.8876V17.2984C21.5314 17.3255 21.5212 17.3492 21.5009 17.3695C21.4806 17.3898 21.4587 17.3999 21.435 17.3999H17.7048ZM22.0576 14.9893C22.0576 14.9588 22.0678 14.9267 22.0881 14.8929C22.1084 14.8556 22.1337 14.8218 22.1642 14.7914C22.1946 14.7609 22.2268 14.7355 22.2606 14.7152C22.2978 14.6949 22.3317 14.6848 22.3621 14.6848H25.94C25.9704 14.6848 26.0026 14.6949 26.0364 14.7152C26.0736 14.7355 26.1075 14.7609 26.1379 14.7914C26.1684 14.8218 26.1937 14.8556 26.214 14.8929C26.2343 14.9267 26.2445 14.9588 26.2445 14.9893V17.0954C26.2445 17.1259 26.2343 17.1597 26.214 17.1969C26.1937 17.2307 26.1684 17.2629 26.1379 17.2933C26.1075 17.3238 26.0736 17.3492 26.0364 17.3695C26.0026 17.3898 25.9704 17.3999 25.94 17.3999H22.3621C22.3317 17.3999 22.2978 17.3898 22.2606 17.3695C22.2268 17.3492 22.1946 17.3238 22.1642 17.2933C22.1337 17.2629 22.1084 17.2307 22.0881 17.1969C22.0678 17.1597 22.0576 17.1259 22.0576 17.0954V14.9893ZM23.0523 15.2227C23.032 15.2227 23.0134 15.2278 22.9965 15.238C22.9796 15.2481 22.9694 15.2667 22.966 15.2938V16.7808C22.966 16.8112 22.9745 16.8332 22.9914 16.8467C23.0117 16.8569 23.032 16.862 23.0523 16.862H25.2498C25.2701 16.862 25.2887 16.8569 25.3056 16.8467C25.3259 16.8332 25.3361 16.8112 25.3361 16.7808V15.2938C25.3361 15.2667 25.3259 15.2481 25.3056 15.238C25.2887 15.2278 25.2701 15.2227 25.2498 15.2227H23.0523ZM26.8353 15.7658H27.8452V14.9538C27.8452 14.9436 27.857 14.9335 27.8807 14.9233C27.9044 14.9132 27.9315 14.9064 27.9619 14.903C27.9924 14.8962 28.0211 14.8912 28.0482 14.8878C28.0753 14.8844 28.0939 14.8827 28.104 14.8827C28.1176 14.8827 28.1395 14.8844 28.17 14.8878C28.2004 14.8912 28.2309 14.8962 28.2613 14.903C28.2952 14.9064 28.3239 14.9132 28.3476 14.9233C28.3713 14.9335 28.3831 14.9436 28.3831 14.9538V15.7658H29.3981C29.4083 15.7658 29.4184 15.7776 29.4286 15.8013C29.4387 15.825 29.4455 15.852 29.4489 15.8825C29.4557 15.9129 29.4607 15.9417 29.4641 15.9688C29.4675 15.9958 29.4692 16.0144 29.4692 16.0246C29.4692 16.0381 29.4675 16.0601 29.4641 16.0906C29.4607 16.121 29.4557 16.1531 29.4489 16.187C29.4455 16.2174 29.4387 16.2445 29.4286 16.2682C29.4184 16.2919 29.4083 16.3037 29.3981 16.3037H28.3831V17.1106C28.3831 17.1208 28.3713 17.1309 28.3476 17.1411C28.3239 17.1478 28.2952 17.1546 28.2613 17.1614C28.2309 17.1681 28.2004 17.1732 28.17 17.1766C28.1395 17.18 28.1176 17.1817 28.104 17.1817C28.0939 17.1817 28.0753 17.18 28.0482 17.1766C28.0211 17.1732 27.9924 17.1681 27.9619 17.1614C27.9315 17.1546 27.9044 17.1478 27.8807 17.1411C27.857 17.1309 27.8452 17.1208 27.8452 17.1106V16.3037H26.8353C26.8251 16.3037 26.815 16.2919 26.8048 16.2682C26.7981 16.2445 26.7913 16.2174 26.7845 16.187C26.7778 16.1531 26.7727 16.121 26.7693 16.0906C26.7659 16.0601 26.7642 16.0381 26.7642 16.0246C26.7642 16.0144 26.7659 15.9958 26.7693 15.9688C26.7727 15.9417 26.7778 15.9129 26.7845 15.8825C26.7913 15.852 26.7981 15.825 26.8048 15.8013C26.815 15.7776 26.8251 15.7658 26.8353 15.7658Z" fill="#151515"/>
</svg>
