<svg xmlns="http://www.w3.org/2000/svg" viewBox="-2 -3 1213.92 106.00" fill="none"><path d="M0.00 6.00L6.00 0.00L98.00 0.00L104.00 6.00L104.00 20.00L20.00 20.00L20.00 40.00L78.00 40.00L84.00 46.00L84.00 54.00L78.00 60.00L20.00 60.00L20.00 94.00L14.00 100.00L6.00 100.00L0.00 94.00Z" transform="translate(0.00,0) scale(1)" fill="#EDEDED" fill-rule="evenodd"/><path d="M0.00 6.00L6.00 0.00L14.00 0.00L20.00 6.00L20.00 80.00L92.00 80.00L98.00 86.00L98.00 94.00L92.00 100.00L6.00 100.00L0.00 94.00Z" transform="translate(120.00,0) scale(1)" fill="#EDEDED" fill-rule="evenodd"/><path d="M0.00 6.00L6.00 0.00L98.00 0.00L104.00 6.00L104.00 20.00L20.00 20.00L20.00 40.00L80.00 40.00L86.00 46.00L86.00 54.00L80.00 60.00L20.00 60.00L20.00 80.00L98.00 80.00L104.00 86.00L104.00 94.00L98.00 100.00L6.00 100.00L0.00 94.00Z" transform="translate(234.00,0) scale(1)" fill="#EDEDED" fill-rule="evenodd"/><path d="M0.00 0L27.00 0L116.00 100L89.00 100ZM89.00 0L116.00 0L27.00 100L0.00 100Z" transform="translate(354.00,0) scale(1)" fill="#EDEDED" fill-rule="evenodd"/><path d="M0.00 6.00L6.00 0.00L102.00 0.00L120.00 18.00L120.00 82.00L102.00 100.00L6.00 100.00L0.00 94.00ZM20.00 26.00L26.00 20.00L86.00 20.00L100.00 34.00L100.00 66.00L86.00 80.00L26.00 80.00L20.00 74.00Z" transform="translate(486.00,0) scale(1)" fill="#EDEDED" fill-rule="evenodd"/><path d="M0.00 14.00L14.00 0.00L110.00 0.00L124.00 14.00L124.00 86.00L110.00 100.00L14.00 100.00L0.00 86.00ZM20.00 30.00L30.00 20.00L94.00 20.00L104.00 30.00L104.00 70.00L94.00 80.00L30.00 80.00L20.00 70.00Z" transform="translate(622.00,0) scale(1)" fill="#EDEDED" fill-rule="evenodd"/><path d="M118.00 6.00L112.00 0.00L14.00 0.00L0.00 14.00L0.00 86.00L14.00 100.00L112.00 100.00L118.00 94.00L118.00 86.00L112.00 80.00L28.00 80.00L20.00 72.00L20.00 28.00L28.00 20.00L112.00 20.00L118.00 14.00Z" transform="translate(762.00,0) scale(1)" fill="#EDEDED" fill-rule="evenodd"/><path d="M0.00 6.00L6.00 0.00L14.00 0.00L20.00 6.00L20.00 94.00L14.00 100.00L6.00 100.00L0.00 94.00ZM9.00 50L35.00 50L125.00 0L99.00 0ZM9.00 50L35.00 50L125.00 100L99.00 100Z" transform="translate(896.00,0) scale(1)" fill="#EDEDED" fill-rule="evenodd"/><path d="M0.00 6.00L6.00 0.00L14.00 0.00L20.00 6.00L20.00 80.00L92.00 80.00L98.00 86.00L98.00 94.00L92.00 100.00L6.00 100.00L0.00 94.00Z" transform="translate(1030.00,0) scale(0.52)" fill="#EDEDED" fill-rule="evenodd"/><path d="M0.00 6.00L6.00 0.00L14.00 0.00L20.00 6.00L20.00 80.00L92.00 80.00L98.00 86.00L98.00 94.00L92.00 100.00L6.00 100.00L0.00 94.00Z" transform="translate(1089.28,0) scale(0.52)" fill="#EDEDED" fill-rule="evenodd"/><path d="M118.00 6.00L112.00 0.00L14.00 0.00L0.00 14.00L0.00 86.00L14.00 100.00L112.00 100.00L118.00 94.00L118.00 86.00L112.00 80.00L28.00 80.00L20.00 72.00L20.00 28.00L28.00 20.00L112.00 20.00L118.00 14.00Z" transform="translate(1148.56,0) scale(0.52)" fill="#EDEDED" fill-rule="evenodd"/></svg>