<svg xmlns="http://www.w3.org/2000/svg" viewBox="4.45 24.07 622.18 79.10" fill="none"><path d="M6.45 100L17.97 100L17.97 68.36L51.61 68.36L51.61 58.50L17.97 58.50L17.97 37.30L54.30 37.30L54.30 27.25L6.45 27.25M63.09 100L108.79 100L108.79 89.94L74.61 89.94L74.61 27.25L63.09 27.25M117.58 100L167.04 100L167.04 89.94L129.10 89.94L129.10 67.92L164.21 67.92L164.21 58.01L129.10 58.01L129.10 37.30L167.04 37.30L167.04 27.25L117.58 27.25M171.29 100L184.38 100L196.29 82.76L203.81 71.63C206.25 75.34 208.69 79 211.23 82.76L222.95 100L236.28 100L210.50 62.40L234.62 27.25L221.73 27.25L211.96 41.46C209.18 45.56 206.54 49.61 203.91 53.71C201.32 49.61 198.63 45.56 195.95 41.46L186.38 27.25L173.19 27.25L197.36 62.79M267.53 100C289.75 100 302.88 86.13 302.88 63.53C302.88 41.06 289.70 27.25 268.21 27.25L243.65 27.25L243.65 100M255.18 90.04L255.18 37.21L267.43 37.21C283.40 37.21 291.26 46.97 291.26 63.53C291.26 80.22 283.45 90.04 266.85 90.04M344.09 101.17C363.53 101.17 377.73 86.08 377.73 63.67C377.73 41.16 363.53 26.07 344.09 26.07C324.66 26.07 310.50 41.16 310.50 63.67C310.50 86.04 324.66 101.17 344.09 101.17M344.09 90.72C331.79 90.72 322.12 81.01 322.12 63.67C322.12 46.24 331.79 36.52 344.09 36.52C356.45 36.52 366.11 46.24 366.11 63.67C366.11 81.01 356.45 90.72 344.09 90.72M419.38 101.17C435.45 101.17 447.80 91.26 450.29 75.63L438.57 75.63C436.38 85.30 429.15 90.72 419.48 90.72C405.47 90.72 396.97 79.83 396.97 63.67C396.97 47.41 405.47 36.52 419.48 36.52C429.25 36.52 436.47 41.99 438.57 51.71L450.29 51.71C447.75 36.04 435.45 26.07 419.38 26.07C399.32 26.07 385.35 41.11 385.35 63.67C385.35 86.08 399.37 101.17 419.38 101.17M460.40 100L471.92 100L471.92 77.88L482.08 66.55L505.22 100L518.75 100L489.89 58.74L518.41 27.25L503.96 27.25L483.69 49.76L471.92 63.13L471.92 27.25L460.40 27.25 M537.03 100L560.79 100L560.79 94.77L543.02 94.77L543.02 62.17L537.03 62.17M565.37 100L589.13 100L589.13 94.77L571.36 94.77L571.36 62.17L565.37 62.17M608.55 100.61C616.91 100.61 623.33 95.46 624.63 87.33L618.53 87.33C617.39 92.36 613.63 95.18 608.61 95.18C601.32 95.18 596.90 89.51 596.90 81.11C596.90 72.65 601.32 66.99 608.61 66.99C613.68 66.99 617.44 69.84 618.53 74.89L624.63 74.89C623.31 66.74 616.91 61.56 608.55 61.56C598.12 61.56 590.86 69.38 590.86 81.11C590.86 92.76 598.14 100.61 608.55 100.61" fill="#EDEDED"/></svg>