<svg width="12" height="12" viewBox="0 0 12 12" fill="none" xmlns="http://www.w3.org/2000/svg">
<g clip-path="url(#clip0_42177_1077)">
<path d="M6 12C9.31371 12 12 9.31371 12 6C12 2.68629 9.31371 0 6 0C2.68629 0 0 2.68629 0 6C0 9.31371 2.68629 12 6 12Z" fill="#F0F0F0"/>
<path d="M1.24031 2.34708C0.769008 2.96027 0.413625 3.66703 0.206695 4.43482H3.32805L1.24031 2.34708Z" fill="#0052B4"/>
<path d="M11.7933 4.43482C11.5864 3.66705 11.231 2.9603 10.7597 2.3471L8.67199 4.43482H11.7933Z" fill="#0052B4"/>
<path d="M0.206695 7.56525C0.413648 8.33301 0.769031 9.03977 1.24031 9.65294L3.32798 7.56525H0.206695Z" fill="#0052B4"/>
<path d="M9.65292 1.24034C9.03972 0.769031 8.33299 0.413648 7.5652 0.206695V3.32803L9.65292 1.24034Z" fill="#0052B4"/>
<path d="M2.34708 10.7597C2.96027 11.231 3.66703 11.5863 4.4348 11.7933V8.67199L2.34708 10.7597Z" fill="#0052B4"/>
<path d="M4.43477 0.206695C3.66701 0.413648 2.96025 0.769031 2.34708 1.24031L4.43477 3.32801V0.206695Z" fill="#0052B4"/>
<path d="M7.56523 11.7933C8.33299 11.5863 9.03975 11.231 9.65292 10.7597L7.56523 8.67199V11.7933Z" fill="#0052B4"/>
<path d="M8.67199 7.56525L10.7597 9.65297C11.231 9.0398 11.5864 8.33301 11.7933 7.56525H8.67199Z" fill="#0052B4"/>
<path d="M11.9492 5.2174H6.78265L6.78262 0.0507891C6.52643 0.0174375 6.26524 0 6 0C5.73471 0 5.47357 0.0174375 5.2174 0.0507891L5.2174 5.21735L0.0507891 5.21737C0.0174375 5.47357 0 5.73476 0 6C0 6.26529 0.0174375 6.52643 0.0507891 6.7826L5.21735 6.7826L5.21737 11.9492C5.47357 11.9826 5.73471 12 6 12C6.26524 12 6.52643 11.9826 6.7826 11.9492V6.78265L11.9492 6.78262C11.9826 6.52643 12 6.26529 12 6C12 5.73476 11.9826 5.47357 11.9492 5.2174Z" fill="#D80027"/>
<path d="M7.56523 7.56525L10.2426 10.2427C10.3658 10.1196 10.4832 9.99086 10.5953 9.85746L8.30308 7.56523L7.56523 7.56525Z" fill="#D80027"/>
<path d="M4.43477 7.56525L1.75734 10.2426C1.88044 10.3658 2.00913 10.4832 2.14254 10.5953L4.43477 8.30304V7.56525Z" fill="#D80027"/>
<path d="M4.43477 4.43482L1.75737 1.75734C1.63423 1.88044 1.51676 2.00913 1.40468 2.14254L3.69694 4.4348L4.43477 4.43482Z" fill="#D80027"/>
<path d="M7.56523 4.43482L10.2427 1.75737C10.1196 1.63423 9.99086 1.51676 9.85746 1.4047L7.56523 3.69696V4.43482Z" fill="#D80027"/>
</g>
<defs>
<clipPath id="clip0_42177_1077">
<rect width="12" height="12" fill="white"/>
</clipPath>
</defs>
</svg>
