<svg width="20" height="20" viewBox="0 0 20 20" fill="none" xmlns="http://www.w3.org/2000/svg">
<g clip-path="url(#clip0_42177_526)">
<path d="M10.0004 20C15.523 20 20 15.523 20 10.0004C20 4.47781 15.523 0.000844452 10.0004 0.000844452C4.47777 0.000844452 0.000802229 4.47781 0.000802229 10.0004C0.000802229 15.523 4.47777 20 10.0004 20Z" fill="white"/>
<path d="M19.4283 6.66598H13.2671C13.5346 8.80215 13.5363 11.1559 13.2722 13.2947H19.4416C19.8016 12.2627 20 11.1551 20 10.0004C20.0001 8.8309 19.7971 7.70888 19.4283 6.66598Z" fill="#EFECEC"/>
<path d="M13.2671 6.66598H19.4283C19.4272 6.66281 19.4262 6.66015 19.4251 6.65728C18.1452 3.04864 14.8533 0.393641 10.8978 0.0412093C12.4285 0.880257 12.8755 3.53859 13.2671 6.66598Z" fill="#E63026"/>
<path d="M10.898 19.9587C14.8605 19.6056 18.1572 16.9414 19.432 13.3231C19.4354 13.3135 19.4381 13.304 19.4416 13.2947H13.2722C12.884 16.439 12.4349 19.1161 10.898 19.9587Z" fill="#2B479D"/>
<path d="M0 10.0001C0 11.1548 0.198151 12.2627 0.558141 13.2947H13.787C14.0512 11.1557 14.0494 8.80215 13.782 6.66598H0.571398C0.202542 7.70888 0 8.83056 0 10.0001Z" fill="#EFEFEF"/>
<path d="M0.574354 6.65732C0.573256 6.66015 0.572496 6.66281 0.571398 6.66598H13.782C13.3904 3.53855 12.4283 0.880257 10.8978 0.0412093C10.6018 0.0149468 10.3026 0 9.99975 0C5.64964 0 1.95001 2.77846 0.574354 6.65732Z" fill="#E73B36"/>
<path d="M13.787 13.2947H0.558141C0.561476 13.304 0.564474 13.3135 0.567767 13.3231C1.93798 17.2119 5.64246 20 9.99975 20C10.3026 20 10.602 19.9852 10.898 19.9587C12.4349 19.1162 13.3987 16.439 13.787 13.2947Z" fill="#3757A6"/>
</g>
<defs>
<clipPath id="clip0_42177_526">
<rect width="20" height="20" fill="white"/>
</clipPath>
</defs>
</svg>
