<svg width="20" height="20" viewBox="0 0 20 20" fill="none" xmlns="http://www.w3.org/2000/svg">
<g clip-path="url(#clip0_42177_1855)">
<path d="M10 20C15.5228 20 20 15.5228 20 10C20 4.47715 15.5228 0 10 0C4.47715 0 0 4.47715 0 10C0 15.5228 4.47715 20 10 20Z" fill="#F0F0F0"/>
<path d="M0.344492 12.6087C0.923086 14.7555 2.19828 16.6163 3.91305 17.9338V12.6087H0.344492Z" fill="#D80027"/>
<path d="M9.13043 19.962C9.41707 19.9866 9.70695 20 10 20C14.6203 20 18.508 16.8664 19.6555 12.6087H9.13043V19.962Z" fill="#D80027"/>
<path d="M19.6555 7.39129C18.508 3.13363 14.6203 0 10 0C9.70695 0 9.41707 0.0133594 9.13043 0.0380469V7.39129H19.6555Z" fill="#D80027"/>
<path d="M3.91305 2.06621C2.19828 3.38379 0.923086 5.24445 0.344492 7.39129H3.91305V2.06621Z" fill="#D80027"/>
<path d="M19.9154 8.69566H7.82613L7.82609 0.237695C6.90195 0.442617 6.02582 0.774766 5.21738 1.2159V8.69559L0.0846484 8.69563C0.0289844 9.12262 0 9.55793 0 10C0 10.4421 0.0289844 10.8774 0.0846484 11.3043H5.21734L5.21738 18.7841C6.02582 19.2252 6.90195 19.5574 7.82609 19.7623V11.3045L19.9154 11.3044C19.9709 10.8774 20 10.4421 20 10C20 9.55793 19.9709 9.12262 19.9154 8.69566Z" fill="#0052B4"/>
</g>
<defs>
<clipPath id="clip0_42177_1855">
<rect width="20" height="20" fill="white"/>
</clipPath>
</defs>
</svg>
