<svg width="20" height="20" viewBox="0 0 20 20" fill="none" xmlns="http://www.w3.org/2000/svg">
<g clip-path="url(#clip0_usa)">
<rect width="20" height="20" fill="#F0F0F0"/>
<g fill="#D80027">
<rect y="0" width="20" height="1.5385"/>
<rect y="3.0769" width="20" height="1.5385"/>
<rect y="6.1538" width="20" height="1.5385"/>
<rect y="9.2308" width="20" height="1.5385"/>
<rect y="12.3077" width="20" height="1.5385"/>
<rect y="15.3846" width="20" height="1.5385"/>
<rect y="18.4615" width="20" height="1.5385"/>
</g>
<rect width="8" height="10.7692" fill="#0052B4"/>
<g fill="#F0F0F0">
<circle cx="0.9" cy="1.35" r="0.32"/><circle cx="2.35" cy="1.35" r="0.32"/><circle cx="3.8" cy="1.35" r="0.32"/><circle cx="5.25" cy="1.35" r="0.32"/><circle cx="6.7" cy="1.35" r="0.32"/>
<circle cx="1.6" cy="2.7" r="0.32"/><circle cx="3.05" cy="2.7" r="0.32"/><circle cx="4.5" cy="2.7" r="0.32"/><circle cx="5.95" cy="2.7" r="0.32"/>
<circle cx="0.9" cy="4.05" r="0.32"/><circle cx="2.35" cy="4.05" r="0.32"/><circle cx="3.8" cy="4.05" r="0.32"/><circle cx="5.25" cy="4.05" r="0.32"/><circle cx="6.7" cy="4.05" r="0.32"/>
<circle cx="1.6" cy="5.4" r="0.32"/><circle cx="3.05" cy="5.4" r="0.32"/><circle cx="4.5" cy="5.4" r="0.32"/><circle cx="5.95" cy="5.4" r="0.32"/>
<circle cx="0.9" cy="6.75" r="0.32"/><circle cx="2.35" cy="6.75" r="0.32"/><circle cx="3.8" cy="6.75" r="0.32"/><circle cx="5.25" cy="6.75" r="0.32"/><circle cx="6.7" cy="6.75" r="0.32"/>
<circle cx="1.6" cy="8.1" r="0.32"/><circle cx="3.05" cy="8.1" r="0.32"/><circle cx="4.5" cy="8.1" r="0.32"/><circle cx="5.95" cy="8.1" r="0.32"/>
<circle cx="0.9" cy="9.45" r="0.32"/><circle cx="2.35" cy="9.45" r="0.32"/><circle cx="3.8" cy="9.45" r="0.32"/><circle cx="5.25" cy="9.45" r="0.32"/><circle cx="6.7" cy="9.45" r="0.32"/>
</g>
</g>
<defs>
<clipPath id="clip0_usa">
<rect width="20" height="20" rx="10" fill="white"/>
</clipPath>
</defs>
</svg>
