<svg width="256" height="256" viewBox="0 0 256 256" fill="none" xmlns="http://www.w3.org/2000/svg">
<rect width="256" height="256" fill="#D9D9D9"/>
<path d="M44.89 122.985C44.61 123.032 44.4467 123.195 44.4 123.475V133.73C44.4 133.94 44.4583 134.092 44.575 134.185C44.715 134.255 44.855 134.29 44.995 134.29H66.135C66.205 134.29 66.275 134.372 66.345 134.535C66.415 134.698 66.4617 134.885 66.485 135.095C66.5317 135.305 66.5667 135.515 66.59 135.725C66.6133 135.935 66.625 136.087 66.625 136.18C66.625 136.25 66.6133 136.39 66.59 136.6C66.5667 136.787 66.5317 136.985 66.485 137.195C66.4617 137.405 66.415 137.592 66.345 137.755C66.275 137.918 66.205 138 66.135 138H40.235C40.025 138 39.7917 137.93 39.535 137.79C39.3017 137.65 39.08 137.475 38.87 137.265C38.66 137.055 38.485 136.833 38.345 136.6C38.205 136.343 38.135 136.11 38.135 135.9V121.375C38.135 121.165 38.205 120.943 38.345 120.71C38.485 120.453 38.66 120.22 38.87 120.01C39.08 119.8 39.3017 119.625 39.535 119.485C39.7917 119.345 40.025 119.275 40.235 119.275H66.135C66.205 119.275 66.275 119.357 66.345 119.52C66.415 119.683 66.4617 119.87 66.485 120.08C66.5317 120.29 66.5667 120.488 66.59 120.675C66.6133 120.862 66.625 120.99 66.625 121.06C66.625 121.153 66.6133 121.305 66.59 121.515C66.5667 121.725 66.5317 121.947 66.485 122.18C66.4617 122.39 66.415 122.577 66.345 122.74C66.275 122.903 66.205 122.985 66.135 122.985H44.89ZM72.3541 119.275H97.0291C97.2391 119.275 97.4608 119.345 97.6941 119.485C97.9508 119.625 98.1841 119.8 98.3941 120.01C98.6041 120.22 98.7791 120.453 98.9191 120.71C99.0591 120.943 99.1291 121.165 99.1291 121.375V137.3C99.1291 137.487 99.0591 137.65 98.9191 137.79C98.7791 137.93 98.6275 138 98.4641 138H93.5291C93.3891 138 93.2375 137.93 93.0741 137.79C92.9341 137.65 92.8641 137.487 92.8641 137.3V133.835H76.5191V137.3C76.5191 137.487 76.4491 137.65 76.3091 137.79C76.1691 137.93 76.0175 138 75.8541 138H70.9191C70.7791 138 70.6275 137.93 70.4641 137.79C70.3241 137.65 70.2541 137.487 70.2541 137.3V121.375C70.2541 121.165 70.3241 120.943 70.4641 120.71C70.6041 120.453 70.7791 120.22 70.9891 120.01C71.1991 119.8 71.4208 119.625 71.6541 119.485C71.9108 119.345 72.1441 119.275 72.3541 119.275ZM76.5191 123.545V130.125H92.8641V123.545C92.8641 123.335 92.7941 123.195 92.6541 123.125C92.5375 123.032 92.4091 122.985 92.2691 122.985H77.1141C76.9741 122.985 76.8341 123.032 76.6941 123.125C76.5775 123.195 76.5191 123.335 76.5191 123.545ZM129.663 138H124.833C124.693 138 124.542 137.918 124.378 137.755C124.238 137.592 124.122 137.44 124.028 137.3L121.473 133.835H109.048V137.3C109.048 137.487 108.978 137.65 108.838 137.79C108.698 137.93 108.547 138 108.383 138H103.448C103.308 138 103.157 137.93 102.993 137.79C102.853 137.65 102.783 137.487 102.783 137.3V119.94C102.783 119.777 102.853 119.625 102.993 119.485C103.157 119.345 103.308 119.275 103.448 119.275H129.558C129.768 119.275 129.99 119.345 130.223 119.485C130.48 119.625 130.713 119.8 130.923 120.01C131.133 120.22 131.308 120.453 131.448 120.71C131.588 120.943 131.658 121.165 131.658 121.375V131.735C131.658 131.945 131.588 132.178 131.448 132.435C131.308 132.668 131.133 132.89 130.923 133.1C130.713 133.31 130.48 133.485 130.223 133.625C129.99 133.765 129.768 133.835 129.558 133.835H128.053L130.328 137.3C130.328 137.487 130.247 137.65 130.083 137.79C129.943 137.93 129.803 138 129.663 138ZM124.903 122.985H109.048V130.125H124.868C125.008 130.102 125.125 130.055 125.218 129.985C125.335 129.892 125.393 129.752 125.393 129.565V123.475C125.393 123.335 125.335 123.23 125.218 123.16C125.125 123.067 125.02 123.008 124.903 122.985ZM137.413 138C137.203 138 136.969 137.93 136.713 137.79C136.479 137.65 136.258 137.475 136.048 137.265C135.838 137.055 135.663 136.833 135.523 136.6C135.383 136.343 135.313 136.11 135.313 135.9V121.375C135.313 121.165 135.383 120.943 135.523 120.71C135.663 120.453 135.838 120.22 136.048 120.01C136.258 119.8 136.479 119.625 136.713 119.485C136.969 119.345 137.203 119.275 137.413 119.275H163.313C163.383 119.275 163.453 119.357 163.523 119.52C163.593 119.683 163.639 119.87 163.663 120.08C163.709 120.29 163.744 120.488 163.768 120.675C163.791 120.862 163.803 120.99 163.803 121.06C163.803 121.153 163.791 121.305 163.768 121.515C163.744 121.725 163.709 121.947 163.663 122.18C163.639 122.39 163.593 122.577 163.523 122.74C163.453 122.903 163.383 122.985 163.313 122.985H142.068C141.788 123.032 141.624 123.195 141.578 123.475V133.73C141.578 133.94 141.636 134.092 141.753 134.185C141.893 134.255 142.033 134.29 142.173 134.29H157.538V130.335H147.563C147.493 130.335 147.423 130.265 147.353 130.125C147.283 129.962 147.224 129.787 147.178 129.6C147.154 129.39 147.131 129.192 147.108 129.005C147.084 128.795 147.073 128.643 147.073 128.55C147.073 128.48 147.084 128.363 147.108 128.2C147.131 128.013 147.154 127.827 147.178 127.64C147.224 127.453 147.283 127.29 147.353 127.15C147.423 126.987 147.493 126.905 147.563 126.905H163.103C163.289 126.905 163.453 126.975 163.593 127.115C163.733 127.232 163.803 127.383 163.803 127.57V137.3C163.803 137.487 163.733 137.65 163.593 137.79C163.453 137.93 163.301 138 163.138 138H137.413ZM167.432 121.375C167.432 121.165 167.502 120.943 167.642 120.71C167.782 120.453 167.957 120.22 168.167 120.01C168.377 119.8 168.599 119.625 168.832 119.485C169.089 119.345 169.322 119.275 169.532 119.275H194.207C194.417 119.275 194.639 119.345 194.872 119.485C195.129 119.625 195.362 119.8 195.572 120.01C195.782 120.22 195.957 120.453 196.097 120.71C196.237 120.943 196.307 121.165 196.307 121.375V135.9C196.307 136.11 196.237 136.343 196.097 136.6C195.957 136.833 195.782 137.055 195.572 137.265C195.362 137.475 195.129 137.65 194.872 137.79C194.639 137.93 194.417 138 194.207 138H169.532C169.322 138 169.089 137.93 168.832 137.79C168.599 137.65 168.377 137.475 168.167 137.265C167.957 137.055 167.782 136.833 167.642 136.6C167.502 136.343 167.432 136.11 167.432 135.9V121.375ZM174.292 122.985C174.152 122.985 174.024 123.02 173.907 123.09C173.79 123.16 173.72 123.288 173.697 123.475V133.73C173.697 133.94 173.755 134.092 173.872 134.185C174.012 134.255 174.152 134.29 174.292 134.29H189.447C189.587 134.29 189.715 134.255 189.832 134.185C189.972 134.092 190.042 133.94 190.042 133.73V123.475C190.042 123.288 189.972 123.16 189.832 123.09C189.715 123.02 189.587 122.985 189.447 122.985H174.292ZM200.381 126.73H207.346V121.13C207.346 121.06 207.428 120.99 207.591 120.92C207.755 120.85 207.941 120.803 208.151 120.78C208.361 120.733 208.56 120.698 208.746 120.675C208.933 120.652 209.061 120.64 209.131 120.64C209.225 120.64 209.376 120.652 209.586 120.675C209.796 120.698 210.006 120.733 210.216 120.78C210.45 120.803 210.648 120.85 210.811 120.92C210.975 120.99 211.056 121.06 211.056 121.13V126.73H218.056C218.126 126.73 218.196 126.812 218.266 126.975C218.336 127.138 218.383 127.325 218.406 127.535C218.453 127.745 218.488 127.943 218.511 128.13C218.535 128.317 218.546 128.445 218.546 128.515C218.546 128.608 218.535 128.76 218.511 128.97C218.488 129.18 218.453 129.402 218.406 129.635C218.383 129.845 218.336 130.032 218.266 130.195C218.196 130.358 218.126 130.44 218.056 130.44H211.056V136.005C211.056 136.075 210.975 136.145 210.811 136.215C210.648 136.262 210.45 136.308 210.216 136.355C210.006 136.402 209.796 136.437 209.586 136.46C209.376 136.483 209.225 136.495 209.131 136.495C209.061 136.495 208.933 136.483 208.746 136.46C208.56 136.437 208.361 136.402 208.151 136.355C207.941 136.308 207.755 136.262 207.591 136.215C207.428 136.145 207.346 136.075 207.346 136.005V130.44H200.381C200.311 130.44 200.241 130.358 200.171 130.195C200.125 130.032 200.078 129.845 200.031 129.635C199.985 129.402 199.95 129.18 199.926 128.97C199.903 128.76 199.891 128.608 199.891 128.515C199.891 128.445 199.903 128.317 199.926 128.13C199.95 127.943 199.985 127.745 200.031 127.535C200.078 127.325 200.125 127.138 200.171 126.975C200.241 126.812 200.311 126.73 200.381 126.73Z" fill="#151515"/>
</svg>
